
<svg version="1.0" xmlns="http://www.w3.org/2000/svg"
 width="500.000000pt" height="500.000000pt" viewBox="0 0 500.000000 500.000000"
 preserveAspectRatio="xMidYMid meet">

<g transform="translate(0.000000,500.000000) scale(0.100000,-0.100000)"
fill="#000000" stroke="none">
<path d="M930 3831 c0 -4 27 -11 61 -15 78 -8 125 -31 147 -70 15 -28 18 -92
23 -651 5 -647 6 -650 50 -737 l19 -38 126 0 c116 0 126 1 119 18 -33 82 -36
153 -33 770 3 576 4 619 21 644 24 36 77 59 148 65 33 3 59 10 59 14 0 5 -166
9 -370 9 -203 0 -370 -4 -370 -9z"/>
<path d="M2110 3831 c0 -4 31 -11 69 -14 82 -7 125 -26 151 -70 19 -31 20 -55
20 -627 0 -636 -1 -654 -51 -751 -11 -23 -18 -43 -15 -46 11 -12 36 21 58 75
21 54 23 73 26 357 2 165 7 304 11 308 11 11 92 -11 115 -31 31 -28 46 -66
161 -392 l111 -315 137 -3 c106 -2 137 0 137 10 0 7 -43 137 -96 288 -80 228
-97 286 -98 339 -1 58 1 65 26 84 19 14 47 21 102 25 42 2 76 9 76 13 0 5
-153 9 -340 9 l-340 0 0 274 c0 303 7 367 46 407 28 29 89 49 153 49 23 0 41
5 41 10 0 6 -90 10 -250 10 -137 0 -250 -4 -250 -9z"/>
<path d="M3420 3081 c0 -5 51 -11 113 -13 116 -5 168 -20 181 -53 16 -42 -1
-114 -89 -391 -53 -163 -93 -299 -90 -302 13 -13 29 29 121 313 53 165 104
316 114 335 37 71 89 100 182 100 27 0 48 5 48 10 0 6 -103 10 -290 10 -159 0
-290 -4 -290 -9z"/>
<path d="M3475 2000 c-3 -6 1 -7 9 -4 18 7 21 14 7 14 -6 0 -13 -4 -16 -10z"/>
<path d="M2942 1822 c2 -5 39 -111 83 -236 l80 -227 70 3 69 3 74 228 c65 199
79 257 56 234 -3 -3 -23 -60 -43 -128 -21 -67 -40 -118 -43 -113 -3 5 -20 62
-38 127 l-33 117 -139 0 c-77 0 -138 -4 -136 -8z"/>
</g>
</svg>
